<?xml version="1.0" encoding="UTF-8" standalone="no"?>
<!DOCTYPE svg PUBLIC "-//W3C//DTD SVG 1.1//EN" "http://www.w3.org/Graphics/SVG/1.1/DTD/svg11.dtd">
<svg width="100%" height="100%" viewBox="0 0 95 225" version="1.1" xmlns="http://www.w3.org/2000/svg" xmlns:xlink="http://www.w3.org/1999/xlink" xml:space="preserve" xmlns:serif="http://www.serif.com/" style="fill-rule:evenodd;clip-rule:evenodd;stroke-linejoin:round;stroke-miterlimit:2;">
    <g transform="matrix(1.00877,-1.79753e-31,0,1.00877,-20.8245,-16.6813)">
        <path d="M67.59,239.511C67.222,239.521 66.871,239.529 66.536,239.536C66.278,239.536 29.752,239.403 25.969,232.846C23.407,228.403 20.147,220.456 20.707,210.685C21.376,199.025 27.801,183.574 27.721,174.544C27.602,160.991 22.946,145.005 23.073,131.452C23.209,116.989 22.929,110.971 32.442,93.549C39.18,81.209 41.294,69.539 44.019,55.423C46.739,41.308 47.272,34.682 47.272,34.682C47.272,34.682 32.885,16.536 49.945,16.536L54.816,16.537L80.364,16.537L85.235,16.536C102.295,16.536 87.907,34.682 87.907,34.682C87.907,34.682 88.441,41.308 91.161,55.423C93.886,69.539 96,81.209 102.738,93.549C112.251,110.971 111.97,116.989 112.106,131.452C112.234,145.005 107.578,160.991 107.458,174.544C107.379,183.574 113.804,199.025 114.473,210.685C115.033,220.456 111.773,228.403 109.21,232.846C105.428,239.403 68.902,239.536 68.643,239.536C68.309,239.529 67.957,239.521 67.59,239.511Z" style="fill:rgb(255,5,98);"/>
    </g>
</svg>
